ffmpeg -i https://live1.sr.se/p2-flac -c:a copy -t 60 p2-flac.flac
ffmpeg version 7.1 Copyright (c) 2000-2024 the FFmpeg developers
  built with Apple clang version 16.0.0 (clang-1600.0.26.4)
  configuration: --prefix=/opt/homebrew/Cellar/ffmpeg/7.1_4 --enable-shared --enable-pthreads --enable-version3 --cc=clang --host-cflags= --host-ldflags='-Wl,-ld_classic' --enable-ffplay --enable-gnutls --enable-gpl --enable-libaom --enable-libaribb24 --enable-libbluray --enable-libdav1d --enable-libharfbuzz --enable-libjxl --enable-libmp3lame --enable-libopus --enable-librav1e --enable-librist --enable-librubberband --enable-libsnappy --enable-libsrt --enable-libssh --enable-libsvtav1 --enable-libtesseract --enable-libtheora --enable-libvidstab --enable-libvmaf --enable-libvorbis --enable-libvpx --enable-libwebp --enable-libx264 --enable-libx265 --enable-libxml2 --enable-libxvid --enable-lzma --enable-libfontconfig --enable-libfreetype --enable-frei0r --enable-libass --enable-libopencore-amrnb --enable-libopencore-amrwb --enable-libopenjpeg --enable-libspeex --enable-libsoxr --enable-libzmq --enable-libzimg --disable-libjack --disable-indev=jack --enable-videotoolbox --enable-audiotoolbox --enable-neon
  libavutil      59. 39.100 / 59. 39.100
  libavcodec     61. 19.100 / 61. 19.100
  libavformat    61.  7.100 / 61.  7.100
  libavdevice    61.  3.100 / 61.  3.100
  libavfilter    10.  4.100 / 10.  4.100
  libswscale      8.  3.100 /  8.  3.100
  libswresample   5.  3.100 /  5.  3.100
  libpostproc    58.  3.100 / 58.  3.100
Input #0, ogg, from 'https://live1.sr.se/p2-flac':
  Metadata:
    icy-br          : 128
    icy-description : 
    icy-genre       : 
    icy-name        : 
    icy-pub         : 0
    icy-samplerate  : 44100
    icy-url         : 
  Duration: N/A, start: 0.000000, bitrate: N/A
  Stream #0:0: Audio: flac, 48000 Hz, stereo, s32 (24 bit)
Stream mapping:
  Stream #0:0 -> #0:0 (copy)
Output #0, flac, to 'p2-flac.flac':
  Metadata:
    icy-br          : 128
    icy-description : 
    icy-genre       : 
    icy-name        : 
    icy-pub         : 0
    icy-samplerate  : 44100
    icy-url         : 
    encoder         : Lavf61.7.100
  Stream #0:0: Audio: flac, 48000 Hz, stereo, s32 (24 bit)
Press [q] to stop, [?] for help
[aist#0:0/flac @ 0x119604850] timestamp discontinuity (stream id=0): 118483008000, new offset= -118483008000
[flac @ 0x119605030] Application provided invalid, non monotonically increasing dts to muxer in stream 0: 9216 >= 9216
[out#0/flac @ 0x600000da8000] video:0KiB audio:10878KiB subtitle:0KiB other streams:0KiB global headers:0KiB muxing overhead: 0.075371%
size=   10887KiB time=00:01:00.19 bitrate=1481.6kbits/s speed=1.32x    

